<svg xmlns="http://www.w3.org/2000/svg" xmlns:xlink="http://www.w3.org/1999/xlink" viewBox="0 0 109 26" fill="#fff" fill-rule="evenodd" stroke="#000" stroke-linecap="round" stroke-linejoin="round"><use xlink:href="#A" x=".5" y=".5"/><symbol id="A" overflow="visible"><g stroke="none" fill-rule="nonzero"><path d="M33.75 12.356c.8 0 1.414-.3 1.917-.934l1.006 1.054c-.815.9-1.75 1.366-2.85 1.366s-2-.335-2.707-1.03-1.054-1.557-1.054-2.612.36-1.94 1.078-2.636S32.745 6.5 33.8 6.5c1.174 0 2.156.455 2.923 1.342l-.982 1.126c-.503-.623-1.126-.934-1.87-.934-.6 0-1.102.192-1.533.575s-.647.9-.647 1.58.192 1.198.6 1.605c.407.335.886.55 1.462.55zm4.193 1.4V6.64h1.58v5.702h3.043v1.414zm11.572-.982c-.72.695-1.605 1.054-2.66 1.054s-1.94-.36-2.66-1.054-1.078-1.58-1.078-2.612.36-1.917 1.078-2.612 1.605-1.054 2.66-1.054 1.94.36 2.66 1.054 1.078 1.58 1.078 2.612-.36 1.917-1.078 2.612zm-.55-2.612c0-.623-.216-1.174-.6-1.63-.407-.455-.9-.67-1.5-.67a1.92 1.92 0 0 0-1.51.67 2.34 2.34 0 0 0-.623 1.629 2.34 2.34 0 0 0 .623 1.629c.407.455.9.67 1.5.67a1.92 1.92 0 0 0 1.51-.67c.408-.454.6-.982.6-1.63zm4.864 1.773c.264.335.623.503 1.078.503s.815-.168 1.054-.503c.264-.335.383-.8.383-1.342V6.64h1.58v3.977c0 1.03-.288 1.82-.863 2.372s-1.294.84-2.18.84-1.63-.288-2.204-.84-.863-1.342-.863-2.372V6.64h1.58v3.93c.024.575.168 1.03.43 1.366zm11.2-4.36c.67.623 1.03 1.485 1.03 2.588s-.335 2-.982 2.636c-.67.647-1.677.958-3.02.958H59.58V6.64h2.516c1.27 0 2.252.3 2.923.934zm-1.15 4.24c.383-.36.575-.9.575-1.605s-.192-1.246-.575-1.605c-.383-.383-.982-.575-1.797-.575h-.886v4.337h1.006c.72 0 1.27-.192 1.677-.55zM75.082 6.64h1.605v7.116h-1.605L71.704 9.3v4.456H70.1V6.64h1.5l3.474 4.6zm8.4 7.116l-.67-1.533h-2.988l-.67 1.533h-1.7L80.52 6.64h1.533l3.067 7.116zM81.35 8.772l-.886 2.06h1.78zm7.164-.743v5.726h-1.6V8.03h-2v-1.4h5.63v1.4zm3.163-1.4h1.58v7.116h-1.58zm5.966 4.528l1.82-4.528h1.725l-2.875 7.116H96.97L94.12 6.63h1.725zm9.512-4.528v1.414h-3.546v1.485h3.187v1.342h-3.187v1.485h3.666v1.4h-5.247V6.64zM31.93 19.808c.43 0 .8-.168 1.078-.527l.575.6c-.455.503-.982.767-1.605.767s-1.126-.192-1.5-.575c-.407-.383-.6-.886-.6-1.462a1.98 1.98 0 0 1 .6-1.485 2.01 2.01 0 0 1 1.485-.6c.647 0 1.198.24 1.653.743l-.55.623a1.27 1.27 0 0 0-1.054-.527 1.26 1.26 0 0 0-.863.335c-.24.215-.36.503-.36.886s.12.67.335.886c.216.24.503.335.815.335zm5.606.24c-.407.383-.9.6-1.485.6s-1.078-.192-1.485-.6c-.407-.383-.6-.886-.6-1.462s.192-1.078.6-1.462.9-.6 1.485-.6 1.078.192 1.485.6c.407.383.6.886.6 1.462s-.192 1.078-.6 1.462zm-.288-1.462a1.29 1.29 0 0 0-.335-.9c-.24-.24-.503-.383-.84-.383s-.623.12-.84.383c-.24.24-.335.55-.335.9a1.35 1.35 0 0 0 .335.9c.24.24.503.383.84.383s.623-.12.84-.383a1.32 1.32 0 0 0 .335-.9zm5.223-.503l-1.076 2.205h-.527l-1.078-2.204V20.6h-.886v-3.977H40.1l1.03 2.18 1.03-2.18h1.198V20.6h-.886zm4.624-1.102c.288.24.43.6.43 1.102s-.144.863-.43 1.078c-.288.24-.72.335-1.318.335h-.527v1.102h-.886V16.62h1.414c.6 0 1.03.12 1.318.36zm-.647 1.557c.096-.12.168-.288.168-.527s-.072-.383-.216-.48-.36-.144-.647-.144h-.503v1.342h.6c.288 0 .48-.072.6-.192zm2.827 1.03c.144.192.36.288.6.288a.73.73 0 0 0 .6-.288c.145-.192.216-.43.216-.767v-2.203h.886v2.228c0 .575-.168 1.03-.48 1.342s-.72.455-1.222.455-.9-.168-1.222-.48-.48-.767-.48-1.342v-2.228h.886v2.252c0 .3.072.575.216.743zm4.912-2.18v3.2H53.3v-3.2h-1.126v-.767h3.14v.767zm1.797-.767h.886v4h-.886zm4.648 0h.886v3.977h-.886l-1.893-2.492v2.492h-.886V16.62h.815l1.965 2.564zm4.48 1.965h.886V20c-.407.43-.934.67-1.653.67a2.1 2.1 0 0 1-1.485-.575c-.407-.383-.6-.886-.6-1.462a1.98 1.98 0 0 1 .6-1.485 1.97 1.97 0 0 1 1.462-.599 2.1 2.1 0 0 1 1.485.575l-.455.67c-.168-.168-.335-.264-.503-.3a1.55 1.55 0 0 0-.479-.096 1.26 1.26 0 0 0-.863.335 1.2 1.2 0 0 0-.36.9c0 .373.12.67.335.9.216.216.48.335.8.335s.575-.048.767-.168zm5.918-1.965v.767h-1.845v.863h1.773v.8h-1.773v1.557h-.886V16.62zm4.12 3.426c-.407.383-.9.6-1.485.6a1.98 1.98 0 0 1-1.485-.6c-.407-.383-.6-.886-.6-1.462s.192-1.078.6-1.462.9-.6 1.485-.6a1.98 1.98 0 0 1 1.485.6c.407.383.6.886.6 1.462s-.192 1.078-.6 1.462zm-.3-1.462a1.29 1.29 0 0 0-.335-.9c-.24-.24-.503-.383-.84-.383s-.623.12-.84.383c-.24.24-.335.55-.335.9a1.35 1.35 0 0 0 .335.9c.24.24.503.383.84.383s.623-.12.84-.383c.24-.24.335-.55.335-.9zm2.73.982c.144.192.36.288.6.288a.73.73 0 0 0 .6-.288c.145-.192.216-.43.216-.767v-2.202h.886v2.228c0 .575-.168 1.03-.48 1.342s-.72.455-1.222.455-.9-.168-1.222-.48-.48-.767-.48-1.342v-2.228h.886v2.252c-.024.3.072.575.216.743zm6.014-2.947h.886v3.977h-.886L81.7 18.105v2.492h-.886V16.62h.815l1.965 2.564zm4.912.527c.383.36.575.84.575 1.462s-.192 1.102-.55 1.462-.934.55-1.7.55h-1.376v-4h1.414c.72 0 1.27.168 1.63.527zm-.647 2.372c.216-.216.335-.503.335-.886s-.12-.695-.335-.9-.55-.3-1.006-.3h-.503v2.42h.575c.407-.024.72-.12.934-.3zm4.72 1.078l-.36-.863h-1.674l-.36.863h-.958l1.725-4h.863l1.725 4zm-1.198-2.803l-.503 1.15h1.006zm4.025-.407v3.2h-.9v-3.2H93.37v-.767h3.163v.767zm1.773-.767h.886v4h-.886zm5.223 3.426c-.407.383-.9.6-1.485.6a1.98 1.98 0 0 1-1.485-.6c-.407-.383-.6-.886-.6-1.462s.192-1.078.6-1.462.9-.6 1.485-.6a1.98 1.98 0 0 1 1.485.6c.407.383.6.886.6 1.462s-.192 1.078-.6 1.462zm-.288-1.462a1.29 1.29 0 0 0-.335-.9c-.24-.24-.503-.383-.84-.383s-.623.12-.84.383c-.24.24-.335.55-.335.9a1.35 1.35 0 0 0 .335.9c.24.24.503.383.84.383s.623-.12.84-.383a1.32 1.32 0 0 0 .335-.9zm4.432-1.965h.9v3.977h-.9l-1.89-2.488V20.6h-.886v-3.977h.84l1.94 2.564z" fill="#000"/><path d="M3.52 16.518H0v8.276h8.238v-3.558H3.52zm17.713.04v4.68h-4.72v-.04 3.597h8.238v-8.277h-3.558zM.001 8.278H3.56l-.04-.04v-4.68h4.718V0H.001zM16.515.002V3.56h4.718v4.718h3.52V.002z" fill="#446ca9"/><path d="M16.05 8.278L11.333 3.56h5.182V.002H8.24V3.56l4.718 4.718zm-4.254 8.238H8.704l3.906 3.906.773.812H8.24v3.558h8.276v-3.594l-2.36-2.32zm9.437-8.238v5.144l-4.718-4.718v3.133l4.68 4.68h3.558v-8.24zM8.24 12.958l-4.68-4.68H.001v8.238h3.52v-5.144L8.24 16.1z" fill="#76c4d5"/></g></symbol></svg>